<!DOCTYPE svg PUBLIC "-//W3C//DTD SVG 20010904//EN" "http://www.w3.org/TR/2001/REC-SVG-20010904/DTD/svg10.dtd">
<svg version="1.0" xmlns="http://www.w3.org/2000/svg" width="537px" height="365px" viewBox="0 0 5370 3650" preserveAspectRatio="xMidYMid meet">
<g id="layer101" fill="#010101" stroke="none">
 <path d="M0 1825 l0 -1825 2685 0 2685 0 0 1825 0 1825 -2685 0 -2685 0 0 -1825z"/>
 </g>
<g id="layer102" fill="#ffffff" stroke="none">
 <path d="M0 1825 l0 -1825 2685 0 2685 0 0 1825 0 1825 -2685 0 -2685 0 0 -1825z m1399 1526 c115 -36 200 -107 285 -238 93 -146 115 -242 122 -533 6 -265 16 -317 78 -387 61 -69 99 -83 239 -83 87 0 117 3 117 13 0 6 1 239 1 517 l0 505 -38 3 c-21 2 -42 7 -46 12 -5 4 -9 52 -9 106 l0 99 257 3 256 2 -3 -107 -3 -108 -45 0 -45 0 0 -495 0 -495 31 -3 c22 -2 44 7 80 32 93 67 123 79 163 67 20 -6 58 -29 85 -51 50 -41 81 -54 113 -48 17 3 18 28 21 496 l2 492 -37 0 c-62 0 -64 5 -61 116 l3 99 258 3 258 2 -3 -107 -3 -108 -48 -3 -47 -3 2 -517 3 -517 132 0 c130 0 132 0 174 30 48 33 90 90 109 145 8 21 15 134 20 290 6 219 11 266 29 330 54 182 182 351 316 415 45 22 95 37 131 41 55 6 60 5 72 -17 8 -16 12 -54 10 -108 l-3 -84 -29 -4 c-73 -10 -150 -74 -188 -158 -21 -46 -23 -70 -29 -295 -7 -252 -13 -292 -58 -408 -42 -107 -145 -240 -216 -279 -17 -10 -14 -16 46 -75 80 -77 140 -177 175 -294 25 -82 28 -103 28 -264 1 -153 -2 -185 -22 -253 -59 -206 -183 -369 -332 -441 l-65 -31 -363 -3 -363 -3 3 103 3 103 48 3 47 3 0 465 0 464 -35 0 c-43 0 -77 16 -134 64 -65 55 -98 50 -195 -28 -26 -20 -52 -30 -86 -34 l-50 -5 0 -463 0 -464 50 0 50 0 0 -105 0 -105 -343 0 c-376 0 -403 3 -488 59 -143 95 -256 272 -295 462 -21 104 -15 373 10 463 35 123 117 258 197 321 21 17 38 35 39 41 0 6 -15 22 -34 35 -53 38 -129 134 -168 212 -66 131 -80 211 -87 482 l-6 240 -31 55 c-32 56 -98 117 -137 124 -85 17 -77 7 -77 99 0 131 27 149 159 108z m-569 -2372 c42 -30 84 -60 95 -66 466 -292 950 -450 1530 -502 814 -72 1683 125 2313 525 52 32 104 66 117 74 28 17 47 9 110 -46 l40 -35 -35 -29 c-19 -16 -92 -63 -163 -105 -1113 -667 -2661 -726 -3782 -145 -203 105 -450 271 -450 301 0 15 129 98 140 90 5 -4 44 -32 85 -62z"/>
 <path d="M2730 2134 c-62 -49 -93 -64 -135 -64 -32 0 -36 -3 -33 -22 3 -20 9 -23 44 -22 32 0 52 9 85 36 60 48 81 58 127 58 29 0 50 -9 82 -32 78 -60 95 -68 125 -66 24 2 31 8 33 29 3 23 0 26 -22 22 -40 -8 -69 3 -134 52 -76 57 -109 59 -172 9z"/>
 <path d="M2765 2018 c-11 -6 -39 -27 -63 -46 -32 -27 -55 -36 -93 -40 -44 -4 -50 -7 -47 -26 3 -18 10 -21 45 -20 35 1 52 8 94 44 43 36 60 44 103 48 48 3 54 1 110 -42 84 -66 138 -75 144 -25 3 23 0 26 -22 22 -40 -8 -69 3 -134 52 -62 47 -98 55 -137 33z"/>
 <path d="M1972 1879 c-49 -24 -81 -63 -114 -135 -22 -48 -23 -58 -23 -354 0 -214 4 -317 12 -346 18 -57 66 -125 109 -154 34 -23 49 -25 161 -28 l123 -4 0 29 c1 15 1 249 1 518 l0 490 -113 3 c-99 2 -118 0 -156 -19z"/>
 <path d="M3380 1380 l0 -520 113 0 c97 0 119 3 157 23 55 28 94 77 120 150 18 52 20 82 20 351 0 276 -1 299 -21 352 -25 65 -80 131 -126 151 -21 8 -74 13 -148 13 l-115 0 0 -520z"/>
 </g>

</svg>